<svg width="190" height="272" viewBox="0 0 190 272" fill="none" xmlns="http://www.w3.org/2000/svg">
<path d="M124.716 109.726H37.618C37.618 109.726 29.747 108.551 31.8835 119.927C31.8835 119.927 14.1777 100.186 3.80998 120.841C-6.55774 141.476 7.51963 163.019 7.51963 163.019C7.51963 163.019 21.2113 177.912 32.0713 159.788V177.952C32.3656 182.285 32.9543 187.325 34.0758 192.826C35.7454 201.031 38.0849 207.727 40.2163 212.773C54.7047 211.298 64.5802 214.956 70.9896 218.675C76.11 221.646 82.6412 226.752 92.8973 228.435C97.2768 229.149 100.936 229.016 103.341 228.789C105.427 229.102 108.345 229.062 110.476 226.732C114.572 222.26 113.237 212.072 112.897 208.948C111.73 198.294 112.191 179.601 119.169 144.226C120.55 141.282 122.168 138.165 124.077 134.96C127.598 129.052 131.212 124.346 134.47 120.668C135.211 119.78 138.205 116.041 137.53 113.057C136.784 109.766 131.648 107.67 124.721 109.726H124.716ZM27.235 145.441C27.0473 147.818 26.7885 150.208 25.9917 152.358C23.9568 157.965 16.9079 160.549 12.909 157.237C10.7979 155.488 9.6764 152.277 8.92533 149.166C8.82384 148.786 8.73757 148.425 8.6513 148.045C7.69724 143.732 7.26589 139.173 7.91546 134.787C8.6107 130 10.7472 125.441 14.0102 123.158C17.2885 120.895 21.7086 121.355 24.2765 124.847C25.7329 126.803 26.4992 129.5 26.9356 132.177C27.641 136.529 27.57 141.009 27.2401 145.435L27.235 145.441Z" fill="#46477D"/>
<path d="M107.873 235.572C107.873 235.572 109.05 225.818 116.972 225.818" stroke="#46477D" stroke-width="3" stroke-linecap="round" stroke-linejoin="round"/>
<path d="M58.332 4.20312C63.9599 6.5263 69.4305 11.0058 71.7192 18.4826C76.1444 32.9357 64.9241 36.8277 63.0008 48.6438C62.3005 52.9497 63.2698 57.4893 64.9698 61.2811C66.8069 65.3934 69.4813 69.6592 68.1162 74.7128" stroke="#46477D" stroke-width="3" stroke-linecap="round" stroke-linejoin="round"/>
<path d="M82.7207 36.2188C86.7754 37.8944 90.7185 41.1188 92.3678 46.5128C95.5548 56.927 87.4707 59.7309 86.0853 68.2492C85.5778 71.3534 86.2781 74.6246 87.5011 77.355C88.8104 80.2856 90.7337 83.4366 89.7695 87.0349" stroke="#46477D" stroke-width="3" stroke-linecap="round" stroke-linejoin="round"/>
<path d="M99.8789 2C103.934 3.67562 107.877 6.90003 109.526 12.2941C112.713 22.7083 104.629 25.5121 103.243 34.0304C102.736 37.1347 103.436 40.4058 104.659 43.1362C105.984 46.1002 107.907 49.1711 106.928 52.8161" stroke="#46477D" stroke-width="3" stroke-linecap="round" stroke-linejoin="round"/>
<path d="M31.8719 177.574C31.8719 177.514 31.8617 177.46 31.8567 177.4C20.068 184.189 11.4866 199.751 10.2281 216.6C8.9746 233.45 15.0948 250.907 25.6553 260.58C37.789 271.696 53.6223 272.089 68.4101 271.989C75.2407 271.943 82.0713 271.882 88.902 271.822C95.9711 271.756 103.035 271.696 110.104 271.629C124.522 271.495 139.02 271.368 153.306 268.478C165.987 265.908 176.918 260.033 179.567 241.628C180.973 231.861 179.806 221.821 179.106 211.927C177.878 194.497 178.131 176.953 178.598 159.462C178.893 148.42 179.299 137.219 181.932 126.731C184.277 117.385 188.357 108.726 189.468 98.9929C190.58 89.2596 187.342 77.4569 180.07 75.1337C175.706 73.7384 171.032 76.2218 167.718 80.214C164.404 84.2061 162.222 89.5267 160.238 94.8339L156.614 94.7405C154.782 84.1527 144.45 78.6051 136.853 82.8576C129.256 87.11 125.06 98.8127 125.775 109.634C128.252 109.047 130.875 108.473 133.235 109.641C135.59 110.809 137.447 114.407 136.452 117.451C135.838 119.334 134.377 120.442 133.057 121.53C127.069 126.45 122.096 133.574 119.132 142.005C116.681 148.981 115.636 156.645 114.611 164.209C112.21 181.96 109.8 199.938 110.805 217.922C110.962 220.739 111.124 223.91 109.708 226.04C108.572 227.742 106.735 228.263 105.024 228.49C90.9877 230.359 77.9709 219.611 64.2945 215.031C57.9967 212.922 51.4706 212.128 44.9749 212.234C43.5083 212.261 41.9453 212.294 40.6969 211.286C39.5398 210.352 38.8649 208.689 38.2762 207.081C34.8863 197.821 32.7092 187.801 31.8719 177.587V177.574Z" fill="#6A6AB0"/>
<path d="M40.6975 211.271C25.0977 218.234 27.4778 235.571 27.4778 235.571" stroke="#46477D" stroke-width="3" stroke-linecap="round" stroke-linejoin="round"/>
<path d="M134.475 120.662C134.475 120.662 156.073 122.258 150.526 151.15C144.979 180.043 146.131 199.817 146.131 199.817L144.974 235.572" stroke="#46477D" stroke-width="3" stroke-linecap="round" stroke-linejoin="round"/>
<path d="M140.836 120.66C140.836 120.66 142.221 94.7384 159.07 99.4315C175.913 104.125 171.553 120.66 171.553 120.66L168.58 135.921C168.58 135.921 165.408 151.369 166.996 173.366C168.58 195.363 164.814 225.811 164.814 225.811" stroke="#46477D" stroke-width="3" stroke-linecap="round" stroke-linejoin="round"/>
</svg>
