<svg width="291" height="217" viewBox="0 0 291 217" fill="none" xmlns="http://www.w3.org/2000/svg">
<g clip-path="url(#clip0_3446_2216)">
<path d="M17.2987 195.867C16.9589 195.458 16.5977 195.053 16.2202 194.676C12.8769 191.305 8.17476 189.504 4.98248 185.989C-0.0486099 180.451 -0.16185 172.173 0.0592375 164.699C0.560729 147.843 1.3588 130.76 6.50852 114.701C11.6582 98.6429 21.7204 83.4903 36.6735 75.6983C47.8141 69.8961 60.7019 68.5804 73.25 68.0142C85.1509 67.4749 97.1652 67.5288 108.861 69.7936C120.557 72.0584 131.995 76.6474 141.065 84.3746C158.223 98.9934 164.775 123.097 163.659 145.61C163.033 158.212 159.221 172.243 148.155 178.315C146.737 179.097 145.147 179.793 144.311 181.179C143.664 182.257 143.588 183.567 143.437 184.818C142.396 193.387 137.026 200.446 129.643 204.625C121.123 209.445 112.215 206.415 103.242 209.014C98.826 210.292 95.0567 213.177 90.8183 214.956C85.5985 217.146 79.6723 217.599 74.1829 216.218C71.0553 215.431 68.0571 214.072 64.854 213.7C59.5695 213.085 54.3874 215.204 49.1083 215.83C39.1971 217.006 28.8168 212.449 22.9661 204.366C20.9709 201.605 19.461 198.472 17.2987 195.862V195.867Z" fill="#FCB316"/>
<path d="M14.2954 158.11C12.9311 158.11 11.8257 157.005 11.8257 155.64C11.8257 152.906 9.53392 150 8.64957 149.11C7.68973 148.145 7.68973 146.586 8.64957 145.621C9.61481 144.661 11.1678 144.656 12.1277 145.61C12.6022 146.08 16.7543 150.361 16.7543 155.635C16.7543 156.999 15.6489 158.105 14.2846 158.105L14.2954 158.11Z" fill="#438E88"/>
<path d="M62.379 213.894C62.2065 213.894 62.0285 213.878 61.8506 213.835C36.9917 208.394 26.5898 183.503 23.926 175.781C21.4832 176.519 19.8278 177.76 18.8895 179.539C16.3389 184.403 19.7685 191.845 19.8008 191.92C20.3778 193.149 19.8493 194.622 18.6199 195.199C17.3904 195.781 15.9237 195.252 15.3413 194.023C15.158 193.629 10.8279 184.311 14.5109 177.264C16.4252 173.597 20.0165 171.3 25.1824 170.437C26.4226 170.226 27.6251 170.992 27.9649 172.205C28.0511 172.518 36.954 203.325 62.9075 209.008C64.2394 209.3 65.0806 210.615 64.7894 211.947C64.536 213.101 63.5168 213.889 62.3844 213.889L62.379 213.894Z" fill="#438E88"/>
<path d="M101.581 211.478C101.457 211.478 101.333 211.467 101.209 211.451C60.2381 205.234 43.6619 171.257 40.9334 164.974C37.7087 163.637 35.1689 163.513 33.3787 164.608C30.4776 166.376 29.6579 171.24 29.5878 172.966C29.5339 174.325 28.4339 175.387 27.0264 175.333C25.6676 175.279 24.6053 174.141 24.6592 172.783C24.67 172.421 25.0421 163.934 30.7903 160.407C34.2361 158.293 38.6362 158.45 43.8722 160.876C44.46 161.146 44.913 161.642 45.1448 162.246C45.2904 162.623 59.9253 200.197 101.954 206.571C103.302 206.776 104.229 208.033 104.024 209.381C103.841 210.605 102.789 211.478 101.587 211.478H101.581Z" fill="#438E88"/>
<path d="M101.539 188.69C97.3758 188.69 93.7305 187.612 90.6407 185.465C84.6444 181.297 82.5899 174.292 81.9374 171.025C65.345 166.657 60.2007 154.794 58.8688 150.571C55.6711 149.757 52.9911 150.027 50.8827 151.369C46.2291 154.335 45.3124 161.62 45.3016 161.696C45.1398 163.044 43.9103 164.015 42.5623 163.858C41.2088 163.702 40.2435 162.483 40.3999 161.13C40.443 160.736 41.5754 151.477 48.2027 147.228C51.8911 144.861 56.4207 144.532 61.6513 146.247C62.4979 146.522 63.1288 147.234 63.3013 148.107C63.42 148.684 66.526 162.559 84.6444 166.608C85.6851 166.84 86.4562 167.714 86.5587 168.776C86.5694 168.857 87.5023 177.307 93.4771 181.437C97.0846 183.934 101.938 184.414 107.891 182.872C109.913 182.014 130.291 172.707 130.291 147.643C130.291 147.46 130.312 147.277 130.35 147.099C130.695 145.562 138.417 109.255 104.839 93.3637C103.609 92.7813 103.081 91.3092 103.663 90.0797C104.246 88.8503 105.723 88.3218 106.947 88.9042C142.478 105.723 135.958 144.128 135.219 147.891C135.074 176.908 109.854 187.401 109.6 187.504C109.503 187.542 109.406 187.574 109.309 187.601C106.548 188.329 103.949 188.696 101.528 188.696L101.539 188.69Z" fill="#438E88"/>
<path d="M84.1102 171.478C83.7759 171.478 83.4362 171.408 83.1126 171.267C81.867 170.717 81.3062 169.256 81.8562 168.01C87.2432 155.861 90.7698 143.507 80.2385 135.494C72.8887 129.902 61.473 128.597 51.152 132.178C49.8632 132.626 48.4558 131.941 48.0136 130.657C47.5661 129.369 48.2455 127.967 49.5343 127.519C61.3706 123.415 74.5981 125.001 83.2259 131.569C98.3137 143.049 89.9394 161.944 86.3642 170.011C85.9544 170.933 85.0539 171.478 84.1048 171.478H84.1102Z" fill="#438E88"/>
<path d="M143.583 141.259C140.752 141.259 135.796 140.482 133.505 135.435C132.938 134.195 133.488 132.733 134.729 132.167C135.969 131.601 137.43 132.151 137.996 133.391C139.652 137.042 144.629 136.271 144.839 136.238C146.182 136.017 147.449 136.923 147.676 138.261C147.902 139.598 147.013 140.865 145.675 141.102C145.567 141.119 144.759 141.253 143.583 141.253V141.259Z" fill="#438E88"/>
<path d="M134.718 187.665C127.422 187.665 117.802 186.851 113.871 182.92C112.906 181.955 112.906 180.396 113.871 179.431C114.836 178.466 116.395 178.466 117.36 179.431C120.908 182.974 135.095 183.114 143.205 182.365C144.554 182.241 145.761 183.238 145.891 184.597C146.015 185.956 145.017 187.153 143.664 187.282C142.763 187.363 139.172 187.671 134.718 187.671V187.665Z" fill="#438E88"/>
<path d="M127.276 110.409L250.034 47.0754C250.034 47.0754 254.509 47.7711 251.457 53.1958L131.499 120.46L127.276 110.414V110.409Z" fill="#438E88"/>
<path d="M200.877 33.9665C200.246 33.9665 199.615 33.7238 199.135 33.2439L188.156 22.265C187.191 21.2998 187.191 19.7414 188.156 18.7762C189.121 17.8109 190.68 17.8109 191.645 18.7762L202.624 29.7551C203.589 30.7203 203.589 32.2787 202.624 33.2439C202.144 33.7238 201.513 33.9665 200.882 33.9665H200.877Z" fill="#E37B6D"/>
<path d="M231.942 19.3047C230.578 19.3047 229.473 18.1993 229.473 16.835V2.46971C229.473 1.10544 230.578 0 231.942 0C233.307 0 234.412 1.10544 234.412 2.46971V16.8404C234.412 18.2047 233.307 19.3101 231.942 19.3101V19.3047Z" fill="#438E88"/>
<path d="M263.595 25.7054C263.115 25.7054 262.63 25.5652 262.204 25.274C261.077 24.5029 260.791 22.9661 261.562 21.8444L270.875 8.26104C271.646 7.13943 273.178 6.84824 274.305 7.61935C275.432 8.39046 275.717 9.92729 274.946 11.0489L265.634 24.6323C265.154 25.3279 264.383 25.7054 263.595 25.7054Z" fill="#40BEB1"/>
<path d="M287.786 83.1288C287.414 83.1288 287.041 83.048 286.691 82.87L273.744 76.4315C272.525 75.8222 272.029 74.3447 272.633 73.126C273.242 71.9073 274.725 71.4112 275.939 72.0152L288.886 78.4537C290.104 79.063 290.6 80.5405 289.997 81.7592C289.565 82.6273 288.692 83.1288 287.786 83.1288Z" fill="#D3575D"/>
<path d="M259.481 115.521C258.521 115.521 257.604 114.955 257.205 114.011L250.249 97.4995C249.721 96.2431 250.309 94.7979 251.565 94.2695C252.821 93.741 254.267 94.3288 254.795 95.5852L261.751 112.097C262.28 113.353 261.692 114.798 260.435 115.327C260.123 115.456 259.799 115.521 259.476 115.521H259.481Z" fill="#C9CB3A"/>
<path d="M214.568 115.521C214.228 115.521 213.883 115.451 213.554 115.3C212.314 114.739 211.764 113.278 212.325 112.037L219.119 97.0304C219.68 95.7902 221.141 95.2401 222.387 95.8009C223.627 96.3618 224.177 97.8231 223.616 99.0633L216.822 114.07C216.407 114.982 215.512 115.521 214.573 115.521H214.568Z" fill="#9BB5DE"/>
</g>
<defs>
<clipPath id="clip0_3446_2216">
<rect width="290.255" height="217" fill="white"/>
</clipPath>
</defs>
</svg>
