<svg width="297" height="382" viewBox="0 0 297 382" fill="none" xmlns="http://www.w3.org/2000/svg">
<path d="M84.455 138.325C84.5792 138.08 84.7775 137.87 85.0386 137.733C85.7103 137.377 86.5425 137.634 86.8974 138.306C90.671 145.446 98.7477 144.515 99.0898 144.472C99.842 144.377 100.531 144.909 100.628 145.661C100.724 146.413 100.196 147.101 99.4448 147.2C99.3423 147.213 89.1446 148.445 84.4653 139.591C84.2483 139.181 84.26 138.71 84.455 138.325Z" fill="#2B3990"/>
<path d="M72.998 139.686C73.1197 139.446 73.3128 139.24 73.5668 139.102C74.234 138.739 75.0692 138.985 75.4323 139.652C85.5135 158.177 102.765 153.769 102.938 153.722C103.671 153.525 104.426 153.959 104.624 154.692C104.821 155.425 104.388 156.18 103.654 156.378C103.46 156.431 84.1228 161.375 73.0162 140.967C72.7914 140.554 72.8003 140.076 72.998 139.686Z" fill="#2B3990"/>
<path d="M203.821 240.539C203.697 240.784 203.498 240.994 203.237 241.132C202.565 241.487 201.733 241.23 201.378 240.559C197.605 233.418 189.528 234.349 189.186 234.392C188.434 234.487 187.745 233.955 187.648 233.203C187.552 232.451 188.079 231.763 188.831 231.665C188.933 231.651 199.131 230.419 203.811 239.273C204.027 239.684 204.016 240.154 203.821 240.539Z" fill="#2B3990"/>
<path d="M215.278 239.178C215.156 239.418 214.963 239.625 214.709 239.763C214.042 240.126 213.207 239.879 212.844 239.212C202.763 220.688 185.511 225.095 185.338 225.142C184.605 225.34 183.85 224.905 183.652 224.172C183.455 223.439 183.888 222.684 184.622 222.486C184.816 222.434 204.153 217.489 215.26 237.898C215.485 238.31 215.476 238.788 215.278 239.178Z" fill="#2B3990"/>
<path d="M203.592 255.002C201.735 249.591 196.31 246.954 191.466 244.617C189.773 243.801 188.079 242.984 186.347 242.253C167.152 234.147 143.736 238.328 124.026 242.455C106.143 246.199 88.6803 251.449 70.3817 252.905C74.7465 243.256 76.4974 232.418 75.2477 221.896C74.127 212.459 70.0215 202.571 61.6188 198.13C53.2162 193.69 40.4164 197.94 39.1223 207.355C38.1937 214.11 43.0538 220.326 43.7205 227.112C44.0083 230.042 43.5053 232.866 42.4433 235.529C40.1629 241.247 35.3053 246.221 30.1661 249.904C22.6336 255.303 13.8934 259.35 8.00254 266.504C-2.90237 279.746 -0.798775 299.186 3.41367 315.815C5.71635 324.905 9.00397 334.465 14.2674 342.104C15.0213 344.881 15.7852 347.656 16.5647 350.425C19.7857 361.868 23.1361 375.038 35.5467 379.707C46.8983 383.977 61.2554 381.374 73.0323 379.197C85.4968 376.893 98.8089 373.332 110.044 367.305C117.778 363.156 121.255 356.015 120.436 347.323L121.123 345.706C121.176 345.68 121.229 345.656 121.279 345.622C121.792 345.274 121.989 344.641 121.815 344.079L122.636 342.145C125.598 335.76 124.724 330.895 123.2 324.555C122.015 319.627 124.451 315.07 125.506 310.379C126.619 305.425 126.259 300.313 124.095 295.687C121.725 290.624 117.49 286.3 112.683 283.401C112.694 283.381 112.709 283.365 112.719 283.345C112.909 282.975 112.91 282.562 112.766 282.205C123.239 278.026 134.815 276.312 145.92 274.884C152.888 273.987 160.243 271.647 167.309 272.819C174.351 273.987 180.673 276.842 188.003 276.494C192.798 276.266 198.759 274.853 201.407 270.385C203.677 265.718 205.347 260.116 203.592 255.002Z" fill="#67A7DB"/>
<path d="M29.64 296.209C29.6166 296.071 29.607 295.993 29.6057 295.983C29.4116 292.259 30.579 289.083 33.0694 286.465C38.1027 281.174 46.3184 279.504 53.2931 278.778C58.651 278.22 64.0874 278.295 69.4682 278.323C75.0673 278.351 80.6657 278.511 86.2574 278.801C89.8965 278.99 93.5418 279.302 97.1675 279.669C102.026 280.162 106.846 280.757 111.616 281.843C111.974 281.925 112.348 282.017 112.619 282.266C112.889 282.515 113.003 282.973 112.763 283.251C112.578 283.466 112.263 283.5 111.98 283.51C110.683 283.554 109.389 283.387 108.101 283.228C96.9922 281.854 85.8222 280.977 74.6353 280.6C70.7574 280.47 66.8577 280.511 62.9784 280.678C60.9941 280.764 59.0115 280.894 57.0339 281.078C55.1143 281.258 53.0687 281.802 51.1519 281.802C49.3672 282.079 47.5934 282.43 45.8439 282.88C41.9731 283.874 37.8733 285.404 35.0599 288.364C33.0846 290.441 32.1972 292.862 32.3466 295.762C32.4069 296.256 34.2351 309.804 54.8719 311.439C58.2766 310.898 99.7317 304.47 110.81 310.543C112.631 311.488 121.87 316.468 122.511 320.48C122.629 321.231 122.116 321.934 121.365 322.052C120.615 322.17 119.897 321.662 119.793 320.907C119.47 319.178 114.244 315.427 109.514 312.969C98.9996 307.205 55.584 314.11 55.1468 314.181C55.0402 314.198 54.9318 314.203 54.8239 314.194C33.176 312.551 29.9786 298.199 29.64 296.209Z" fill="#2B3990"/>
<path d="M39.0032 331.572C37.3968 322.127 47.3426 315.21 53.3705 312.708C54.0717 312.417 54.8757 312.749 55.1673 313.45C55.46 314.151 55.1267 314.956 54.4261 315.248C54.383 315.266 50.0756 317.081 46.4619 320.322C41.8896 324.423 40.5163 328.823 42.3793 333.404C42.4057 333.469 42.427 333.535 42.4432 333.603C42.4537 333.646 43.5866 338.178 46.7318 339.634C48.3541 340.386 50.3268 340.189 52.5954 339.05L62.0554 334.301C62.8122 333.967 79.2533 326.88 95.6185 330.018C96.2594 330.112 112.691 332.702 119.522 344.696C119.898 345.355 119.668 346.195 119.008 346.572C118.348 346.947 117.508 346.717 117.132 346.057C110.955 335.211 95.3127 332.752 95.1556 332.729C79.5919 329.745 63.386 336.719 63.2241 336.789L53.8297 341.508C50.7677 343.045 47.9858 343.252 45.5611 342.123C41.4856 340.226 40.0131 335.183 39.7949 334.35C39.4164 333.403 39.1569 332.475 39.0032 331.572Z" fill="#2B3990"/>
<path d="M45.8419 351.912C45.7192 351.191 45.6338 350.442 45.5856 349.665C45.5791 349.56 45.5848 349.454 45.6023 349.35C45.6679 348.965 47.2707 339.895 52.9813 338.923C53.7302 338.796 54.4405 339.3 54.5679 340.049C54.6952 340.798 54.1914 341.508 53.4425 341.635C50.37 342.158 48.7512 347.459 48.3419 349.657C48.6224 353.655 50.0523 356.727 52.5941 358.792C57.741 362.971 65.8707 361.844 65.9523 361.833C91.2761 357.526 96.4368 360.776 96.9418 361.16C97.5462 361.621 97.6626 362.483 97.2023 363.087C96.755 363.675 95.9278 363.801 95.3269 363.386C95.1156 363.268 89.8729 360.555 66.3829 364.549C65.9738 364.61 56.9712 365.877 50.8733 360.937C48.1774 358.754 46.4903 355.724 45.8419 351.912Z" fill="#2B3990"/>
<path d="M93.4085 126.998C95.2653 132.409 100.69 135.046 105.534 137.383C107.227 138.199 108.921 139.016 110.653 139.747C129.848 147.852 153.264 143.672 172.974 139.545C190.857 135.801 208.32 130.55 226.618 129.094C222.254 138.744 220.503 149.582 221.752 160.104C222.873 169.541 226.979 179.429 235.381 183.87C243.784 188.31 256.584 184.06 257.878 174.645C258.806 167.89 253.946 161.674 253.28 154.888C252.992 151.958 253.495 149.134 254.557 146.471C256.837 140.753 261.695 135.779 266.834 132.096C274.366 126.697 283.107 122.65 288.997 115.496C299.902 102.254 297.799 82.8139 293.586 66.1846C291.284 57.0946 287.996 47.5347 282.733 39.8962C281.979 37.1189 281.215 34.3442 280.435 31.5748C277.214 20.1314 273.864 6.96203 261.453 2.29318C250.102 -1.97742 235.745 0.62578 223.968 2.80284C211.503 5.10709 198.191 8.66794 186.956 14.6949C179.222 18.8437 175.745 25.9844 176.564 34.6766L175.877 36.2939C175.824 36.3203 175.771 36.344 175.721 36.3778C175.208 36.7259 175.011 37.3584 175.185 37.921L174.364 39.8545C171.402 46.2401 172.276 51.1051 173.8 57.4451C174.985 62.3731 172.549 66.9294 171.494 71.6212C170.381 76.5744 170.741 81.6864 172.906 86.3124C175.275 91.3761 179.51 95.7001 184.317 98.5988C184.306 98.6185 184.291 98.6349 184.281 98.6553C184.091 99.0248 184.09 99.4377 184.234 99.7949C173.761 103.974 162.185 105.688 151.08 107.116C144.112 108.012 136.757 110.353 129.691 109.181C122.649 108.013 116.327 105.158 108.997 105.506C104.202 105.734 98.2414 107.147 95.5935 111.615C93.3235 116.281 91.6532 121.884 93.4085 126.998Z" fill="#67A7DB"/>
<path d="M267.359 85.7906C267.383 85.9286 267.392 86.0067 267.393 86.0174C267.588 89.7414 266.42 92.9171 263.93 95.535C258.896 100.826 250.681 102.496 243.706 103.222C238.348 103.78 232.912 103.705 227.531 103.677C221.932 103.649 216.333 103.489 210.742 103.199C207.103 103.01 203.457 102.698 199.832 102.331C194.973 101.838 190.153 101.243 185.384 100.157C185.026 100.075 184.651 99.9827 184.381 99.7338C184.111 99.485 183.996 99.0268 184.236 98.7488C184.422 98.5343 184.736 98.4996 185.02 98.4901C186.317 98.4463 187.611 98.6127 188.899 98.772C200.007 100.146 211.177 101.023 222.364 101.4C226.242 101.53 230.142 101.489 234.021 101.322C236.005 101.236 237.988 101.106 239.965 100.922C241.885 100.742 243.93 100.198 245.847 100.198C247.632 99.9211 249.406 99.5697 251.155 99.1204C255.026 98.1264 259.126 96.596 261.939 93.6365C263.915 91.5588 264.802 89.1385 264.653 86.2379C264.592 85.7444 262.764 72.1963 242.127 70.5607C238.723 71.1022 197.268 77.5302 186.189 71.4575C184.368 70.5121 175.129 65.532 174.489 61.5197C174.371 60.7694 174.883 60.0657 175.634 59.9476C176.385 59.8298 177.102 60.338 177.206 61.0931C177.529 62.8225 182.755 66.5727 187.485 69.0309C198 74.7947 241.415 67.8896 241.852 67.819C241.959 67.8019 242.067 67.7974 242.175 67.8056C263.823 69.4492 267.021 83.8009 267.359 85.7906Z" fill="#2B3990"/>
<path d="M257.997 50.428C259.604 59.8732 249.658 66.7899 243.63 69.2921C242.929 69.583 242.125 69.2507 241.833 68.5497C241.541 67.8488 241.874 67.0442 242.575 66.752C242.618 66.7341 246.925 64.9185 250.539 61.6781C255.111 57.5774 256.484 53.1774 254.621 48.5958C254.595 48.5312 254.574 48.4646 254.557 48.3965C254.547 48.3537 253.414 43.822 250.269 42.3658C248.647 41.6144 246.674 41.8113 244.405 42.9501L234.945 47.6994C234.189 48.0331 217.747 55.1204 201.382 51.9822C200.741 51.8875 184.31 49.2984 177.478 37.3044C177.103 36.6449 177.332 35.8047 177.993 35.4285C178.653 35.0526 179.493 35.2831 179.869 35.9429C186.046 46.7886 201.688 49.248 201.845 49.2714C217.409 52.2551 233.615 45.2813 233.777 45.2105L243.171 40.4918C246.233 38.9548 249.015 38.7477 251.44 39.8765C255.515 41.774 256.988 46.8174 257.206 47.6495C257.584 48.5974 257.844 49.5246 257.997 50.428Z" fill="#2B3990"/>
<path d="M251.158 30.0877C251.281 30.809 251.367 31.5577 251.415 32.3346C251.421 32.4398 251.416 32.5456 251.398 32.6498C251.332 33.0352 249.73 42.1053 244.019 43.0764C243.27 43.2037 242.56 42.6999 242.433 41.9511C242.305 41.2024 242.809 40.492 243.558 40.3647C246.63 39.8422 248.249 34.5408 248.658 32.3425C248.378 28.3447 246.948 25.2728 244.406 23.2082C239.259 19.0284 231.13 20.1554 231.048 20.1673C205.724 24.474 200.564 21.2243 200.059 20.8398C199.454 20.3793 199.338 19.5166 199.798 18.9124C200.245 18.3251 201.073 18.1984 201.673 18.614C201.885 18.732 207.127 21.4452 230.617 17.4507C231.027 17.3896 240.029 16.1227 246.127 21.0624C248.823 23.2463 250.51 26.2761 251.158 30.0877Z" fill="#2B3990"/>
</svg>
