<svg width="393" height="168" viewBox="0 0 393 168" fill="none" xmlns="http://www.w3.org/2000/svg">
<path d="M94.5247 10.4317C86.5008 10.4649 79.9892 8.80378 79.9806 6.72146C79.972 4.63913 86.4696 2.92415 94.4935 2.89094C102.517 2.85773 109.029 4.51887 109.038 6.60119C109.046 8.68352 102.549 10.3985 94.5247 10.4317Z" fill="#7F4730"/>
<path d="M112.825 5.11353C112.825 5.11353 110.182 36.6086 105.274 43.3392C102.763 46.7857 97.4566 47.6067 93.5024 47.4107C87.6868 47.1215 83.8288 43.7476 82.2288 38.2363C81.4246 35.4638 81.1939 32.567 80.7489 29.7258C80.3731 27.3343 80.0331 24.9342 79.6489 22.5448C79.2774 20.1975 78.8135 17.8463 78.5304 15.488L77.2957 5.26058C77.2957 5.26058 76.4702 9.03024 93.9898 8.68645C111.507 8.34268 112.825 5.11353 112.825 5.11353Z" fill="#4C1E25"/>
<path d="M108.573 7.05058C108.479 7.04466 108.388 7.02821 108.297 7.00125C107.251 6.68595 106.246 6.11813 105.195 5.7776C100.522 4.27026 95.5264 3.86616 90.6775 4.454C88.9834 4.65868 87.3025 4.98528 85.6494 5.42741C84.7713 5.66236 83.8997 5.92673 83.0388 6.22259C82.5726 6.38223 82.1086 6.55238 81.6488 6.73093C81.4053 6.82446 80.5788 7.33047 80.3472 7.25993C79.3324 6.95501 76.6086 5.8097 77.9528 4.39522C79.297 2.98073 81.7959 2.65075 83.4914 2.26732C89.3277 0.952001 95.1943 0.852016 101.122 1.3553C103.243 1.53578 105.712 1.61809 107.839 1.96888C108.839 2.13297 109.785 2.52439 110.718 2.96844C111.647 3.41251 113.007 4.14078 112.615 5.04243C112.142 6.13157 109.677 7.12171 108.569 7.04849L108.573 7.05058Z" fill="#4C1E25"/>
<path d="M112.619 4.94987C112.783 4.56016 112.763 4.13546 112.463 3.75608C112.078 3.27191 111.469 2.96111 110.902 2.71952C109.324 2.04472 107.557 1.76815 105.859 1.55437C103.673 1.27743 101.464 1.1604 99.2602 1.10433C96.0614 1.02084 92.8548 1.07407 89.6658 1.34592C86.2394 1.63768 82.7779 2.11043 79.5486 3.30351C78.9922 3.50979 78.3539 3.73533 77.9605 4.2038C77.4917 4.7609 77.4574 5.60429 77.8951 6.18498C78.54 7.04028 79.7738 7.42 80.778 7.68501C83.2074 8.32474 85.7902 8.45284 88.295 8.52028C88.6925 8.53125 89.09 8.53802 89.4895 8.54267C92.6987 8.57775 95.9539 8.56428 99.1749 8.41847C101.41 8.31669 103.651 8.15811 105.864 7.8146C107.293 7.59419 108.736 7.30433 110.08 6.77095C110.838 6.47131 111.688 6.08717 112.253 5.49602C112.412 5.32924 112.54 5.14366 112.621 4.94986L112.619 4.94987Z" stroke="#370D13" stroke-width="2" stroke-miterlimit="10"/>
<path d="M111.588 16.5752L111.001 21.063C111.001 21.063 93.0912 25.8055 79.3705 20.8638L78.6909 16.7114C78.6909 16.7114 92.6876 22.3059 111.588 16.5752Z" fill="#F0D2D7"/>
<path d="M109.351 30.7639L108.366 35.3228C108.366 35.3228 93.2283 40.0013 81.5242 35.0512L80.9224 30.8816C80.9224 30.8816 93.2368 36.4831 109.351 30.7639Z" fill="#F0D2D7"/>
<path d="M83.3762 12.2484C83.3762 12.2484 83.9754 12.7359 83.3802 13.2283C83.3802 13.2283 82.7666 12.8103 83.3762 12.2484Z" fill="#F0D2D7"/>
<path d="M83.382 13.6967C83.382 13.6967 83.9813 14.1841 83.3861 14.6766C83.3861 14.6766 82.7724 14.2585 83.382 13.6967Z" fill="#F0D2D7"/>
<path d="M82.1635 13.4284C82.1635 13.4284 82.651 12.8292 83.1434 13.4244C83.1434 13.4244 82.7254 14.038 82.1635 13.4284Z" fill="#F0D2D7"/>
<path d="M83.6122 13.4235C83.6122 13.4235 84.0997 12.8243 84.5922 13.4195C84.5922 13.4195 84.1741 14.0332 83.6122 13.4235Z" fill="#F0D2D7"/>
<path d="M84.5852 12.2434C84.4384 12.3407 84.3106 12.4569 84.1849 12.5794C84.1682 12.5963 84.1683 12.6237 84.1852 12.6404C84.2021 12.6572 84.2294 12.657 84.2462 12.6402C84.3676 12.5177 84.4849 12.3889 84.5852 12.2434Z" fill="#F0D2D7"/>
<path d="M84.1747 12.5876C84.0533 12.7101 83.9361 12.8389 83.8357 12.9844C83.9825 12.887 84.1103 12.7708 84.236 12.6484C84.2527 12.6315 84.2526 12.6041 84.2357 12.5874C84.2188 12.5706 84.1915 12.5707 84.1747 12.5876Z" fill="#F0D2D7"/>
<path d="M82.9207 13.9197C82.7739 14.017 82.6461 14.1332 82.5204 14.2557C82.5036 14.2726 82.5038 14.2999 82.5206 14.3167C82.5375 14.3334 82.5649 14.3333 82.5816 14.3164C82.7031 14.194 82.8203 14.0652 82.9207 13.9197Z" fill="#F0D2D7"/>
<path d="M82.5121 14.2644C82.3907 14.3869 82.2735 14.5156 82.1731 14.6611C82.3199 14.5638 82.4477 14.4476 82.5734 14.3251C82.5901 14.3082 82.59 14.2809 82.5731 14.2641C82.5562 14.2474 82.5289 14.2475 82.5121 14.2644Z" fill="#F0D2D7"/>
<path d="M82.1634 12.2532C82.2649 12.3979 82.3832 12.5256 82.5057 12.6471C82.5226 12.6639 82.5499 12.6637 82.5667 12.6469C82.5834 12.63 82.5833 12.6026 82.5664 12.5859C82.4418 12.4665 82.311 12.3514 82.1634 12.2532Z" fill="#F0D2D7"/>
<path d="M82.5137 12.6553C82.6383 12.7747 82.7691 12.8898 82.9167 12.988C82.8173 12.8433 82.6969 12.7156 82.5744 12.5941C82.5575 12.5774 82.5302 12.5775 82.5134 12.5944C82.4967 12.6113 82.4968 12.6386 82.5137 12.6553Z" fill="#F0D2D7"/>
<path d="M83.8399 13.9168C83.9414 14.0614 84.0597 14.1892 84.1822 14.3107C84.1991 14.3274 84.2264 14.3273 84.2432 14.3104C84.2599 14.2935 84.2598 14.2662 84.2429 14.2494C84.1184 14.1301 83.9875 14.015 83.8399 13.9168Z" fill="#F0D2D7"/>
<path d="M84.1924 14.3204C84.317 14.4397 84.4478 14.5548 84.5954 14.6531C84.496 14.5084 84.3756 14.3806 84.2531 14.2591C84.2362 14.2424 84.2089 14.2425 84.1922 14.2594C84.1754 14.2763 84.1755 14.3036 84.1924 14.3204Z" fill="#F0D2D7"/>
<path d="M100.137 39.7763C100.137 39.7763 100.635 40.1801 100.141 40.5901C100.141 40.5901 99.6304 40.2431 100.137 39.7763Z" fill="#F0D2D7"/>
<path d="M100.142 40.9785C100.142 40.9785 100.64 41.3822 100.145 41.7923C100.145 41.7923 99.635 41.4453 100.142 40.9785Z" fill="#F0D2D7"/>
<path d="M99.1317 40.7564C99.1317 40.7564 99.5355 40.2585 99.9455 40.753C99.9455 40.753 99.5985 41.2634 99.1317 40.7564Z" fill="#F0D2D7"/>
<path d="M100.335 40.7508C100.335 40.7508 100.738 40.2528 101.148 40.7474C101.148 40.7474 100.801 41.2578 100.335 40.7508Z" fill="#F0D2D7"/>
<path d="M101.14 39.7725C101.019 39.8529 100.912 39.9501 100.809 40.0514C100.794 40.0662 100.794 40.0872 100.809 40.1019C100.824 40.1165 100.845 40.1165 100.86 40.1017C100.96 40.0003 101.059 39.8948 101.14 39.7725Z" fill="#F0D2D7"/>
<path d="M100.801 40.0589C100.7 40.1603 100.602 40.2658 100.52 40.3881C100.642 40.3077 100.749 40.2105 100.851 40.1092C100.866 40.0944 100.866 40.0734 100.851 40.0587C100.836 40.044 100.815 40.0441 100.801 40.0589Z" fill="#F0D2D7"/>
<path d="M99.7603 41.1638C99.6386 41.2442 99.5318 41.3414 99.4292 41.4428C99.4145 41.4576 99.4146 41.4786 99.4294 41.4932C99.4441 41.5079 99.4652 41.5078 99.4798 41.493C99.5803 41.3917 99.6787 41.2861 99.7603 41.1638Z" fill="#F0D2D7"/>
<path d="M99.421 41.4483C99.3204 41.5497 99.222 41.6552 99.1405 41.7775C99.2622 41.6971 99.369 41.5999 99.4716 41.4986C99.4863 41.4838 99.4862 41.4628 99.4714 41.4481C99.4566 41.4334 99.4356 41.4335 99.421 41.4483Z" fill="#F0D2D7"/>
<path d="M99.1321 39.78C99.2146 39.8995 99.3138 40.0042 99.4152 40.1069C99.43 40.1215 99.451 40.1214 99.4657 40.1067C99.4803 40.0919 99.4802 40.0708 99.4655 40.0562C99.362 39.9578 99.2544 39.8615 99.1321 39.78Z" fill="#F0D2D7"/>
<path d="M99.4236 40.1156C99.5271 40.214 99.6347 40.3103 99.757 40.3918C99.6745 40.2723 99.5752 40.1655 99.4739 40.0649C99.4591 40.0503 99.4381 40.0504 99.4234 40.0651C99.4088 40.0799 99.4088 40.101 99.4236 40.1156Z" fill="#F0D2D7"/>
<path d="M100.521 41.1599C100.604 41.2794 100.703 41.3841 100.805 41.4867C100.819 41.5014 100.84 41.5013 100.855 41.4865C100.87 41.4718 100.87 41.4507 100.855 41.4361C100.751 41.3377 100.644 41.2414 100.521 41.1599Z" fill="#F0D2D7"/>
<path d="M100.813 41.4933C100.916 41.5917 101.024 41.688 101.146 41.7695C101.064 41.65 100.965 41.5431 100.863 41.4426C100.849 41.428 100.827 41.4281 100.813 41.4428C100.798 41.4576 100.798 41.4786 100.813 41.4933Z" fill="#F0D2D7"/>
<path d="M99.3688 14.1818C99.3688 14.1818 99.8689 14.5877 99.3722 14.9998C99.3722 14.9998 98.8598 14.6508 99.3688 14.1818Z" fill="#F0D2D7"/>
<path d="M99.3737 15.3908C99.3737 15.3908 99.8738 15.7967 99.3771 16.2088C99.3771 16.2088 98.8647 15.8598 99.3737 15.3908Z" fill="#F0D2D7"/>
<path d="M98.3572 15.168C98.3572 15.168 98.7631 14.6679 99.1752 15.1646C99.1752 15.1646 98.8262 15.6771 98.3572 15.168Z" fill="#F0D2D7"/>
<path d="M99.564 15.1629C99.564 15.1629 99.9699 14.6628 100.382 15.1595C100.382 15.1595 100.033 15.6719 99.564 15.1629Z" fill="#F0D2D7"/>
<path d="M100.374 14.1769C100.252 14.2594 100.143 14.3566 100.041 14.4559C100.026 14.4706 100.026 14.4917 100.041 14.5063C100.056 14.521 100.077 14.5209 100.092 14.5061C100.194 14.4027 100.29 14.2971 100.374 14.1748L100.374 14.1769Z" fill="#F0D2D7"/>
<path d="M100.034 14.464C99.9319 14.5675 99.8356 14.673 99.752 14.7954C99.8736 14.7128 99.9825 14.6178 100.085 14.5164C100.1 14.5016 100.1 14.4806 100.085 14.4659C100.07 14.4513 100.049 14.4513 100.034 14.4661L100.034 14.464Z" fill="#F0D2D7"/>
<path d="M98.9876 15.5766C98.8659 15.6591 98.757 15.7563 98.6544 15.8555C98.6397 15.8703 98.6398 15.8913 98.6546 15.906C98.6693 15.9207 98.6904 15.9206 98.705 15.9058C98.8076 15.8023 98.9039 15.6968 98.9875 15.5745L98.9876 15.5766Z" fill="#F0D2D7"/>
<path d="M98.6482 15.8622C98.5456 15.9657 98.4493 16.0712 98.3657 16.1935C98.4874 16.111 98.5963 16.0159 98.6989 15.9146C98.7136 15.8998 98.7135 15.8788 98.6987 15.8641C98.6839 15.8495 98.6629 15.8495 98.6483 15.8643L98.6482 15.8622Z" fill="#F0D2D7"/>
<path d="M98.3572 14.1858C98.4419 14.3074 98.539 14.4121 98.6425 14.5147C98.6573 14.5294 98.6804 14.5293 98.693 14.5145C98.7076 14.4997 98.7075 14.4766 98.6928 14.4641C98.5893 14.3635 98.4795 14.2673 98.3573 14.1879L98.3572 14.1858Z" fill="#F0D2D7"/>
<path d="M98.6491 14.5232C98.7525 14.6238 98.8623 14.72 98.9846 14.7994C98.8999 14.6778 98.8028 14.5731 98.6993 14.4705C98.6845 14.4558 98.6614 14.4559 98.6488 14.4707C98.6342 14.4855 98.6343 14.5086 98.6491 14.5211L98.6491 14.5232Z" fill="#F0D2D7"/>
<path d="M99.7552 15.5742C99.8398 15.6958 99.937 15.8005 100.04 15.9032C100.055 15.9178 100.078 15.9177 100.091 15.9029C100.106 15.8882 100.105 15.865 100.091 15.8525C99.9872 15.752 99.8775 15.6557 99.7552 15.5763L99.7552 15.5742Z" fill="#F0D2D7"/>
<path d="M100.047 15.909C100.15 16.0095 100.26 16.1058 100.382 16.1852C100.298 16.0636 100.2 15.9588 100.097 15.8562C100.082 15.8416 100.059 15.8416 100.047 15.8564C100.032 15.8712 100.032 15.8943 100.047 15.9069L100.047 15.909Z" fill="#F0D2D7"/>
<path d="M89.7885 29.6283C89.7885 29.6283 90.3878 30.1158 89.7926 30.6082C89.7926 30.6082 89.1789 30.1902 89.7885 29.6283Z" fill="#F0D2D7"/>
<path d="M89.7951 31.0778C89.7951 31.0778 90.3944 31.5652 89.7992 32.0577C89.7992 32.0577 89.1855 31.6397 89.7951 31.0778Z" fill="#F0D2D7"/>
<path d="M88.5763 30.8117C88.5763 30.8117 89.0638 30.2125 89.5563 30.8077C89.5563 30.8077 89.1382 31.4213 88.5763 30.8117Z" fill="#F0D2D7"/>
<path d="M90.0251 30.8059C90.0251 30.8059 90.5126 30.2066 91.005 30.8018C91.005 30.8018 90.587 31.4155 90.0251 30.8059Z" fill="#F0D2D7"/>
<path d="M90.9958 29.6238C90.8491 29.7211 90.7213 29.8373 90.5956 29.9598C90.5788 29.9767 90.5789 30.004 90.5958 30.0208C90.6127 30.0375 90.6401 30.0374 90.6568 30.0205C90.7783 29.8981 90.8955 29.7693 90.9958 29.6238Z" fill="#F0D2D7"/>
<path d="M90.5871 29.9668C90.4656 30.0892 90.3484 30.218 90.2481 30.3635C90.3949 30.2662 90.5227 30.15 90.6483 30.0275C90.6651 30.0106 90.665 29.9833 90.6481 29.9665C90.6312 29.9498 90.6038 29.9499 90.5871 29.9668Z" fill="#F0D2D7"/>
<path d="M89.3323 31.3037C89.1855 31.4011 89.0577 31.5172 88.932 31.6397C88.9153 31.6566 88.9154 31.684 88.9323 31.7007C88.9492 31.7175 88.9765 31.7174 88.9932 31.7005C89.1147 31.578 89.2319 31.4492 89.3323 31.3037Z" fill="#F0D2D7"/>
<path d="M88.9218 31.6462C88.8004 31.7687 88.6831 31.8975 88.5828 32.043C88.7296 31.9456 88.8574 31.8294 88.983 31.707C88.9998 31.6901 88.9997 31.6627 88.9828 31.646C88.9659 31.6292 88.9386 31.6293 88.9218 31.6462Z" fill="#F0D2D7"/>
<path d="M88.5738 29.6331C88.6753 29.7777 88.7936 29.9055 88.9161 30.027C88.933 30.0437 88.9603 30.0436 88.9771 30.0267C88.9938 30.0098 88.9937 29.9825 88.9768 29.9658C88.8522 29.8464 88.7214 29.7313 88.5738 29.6331Z" fill="#F0D2D7"/>
<path d="M88.9263 30.035C89.0509 30.1543 89.1817 30.2694 89.3293 30.3677C89.2299 30.223 89.1095 30.0952 88.987 29.9737C88.9701 29.957 88.9428 29.9571 88.926 29.974C88.9093 29.9909 88.9094 30.0182 88.9263 30.035Z" fill="#F0D2D7"/>
<path d="M90.2525 31.2983C90.354 31.443 90.4723 31.5708 90.5948 31.6923C90.6117 31.709 90.639 31.7089 90.6558 31.692C90.6725 31.6751 90.6724 31.6478 90.6555 31.631C90.531 31.5117 90.4001 31.3966 90.2525 31.2983Z" fill="#F0D2D7"/>
<path d="M90.6028 31.7007C90.7274 31.8201 90.8582 31.9352 91.0058 32.0334C90.9064 31.8888 90.786 31.761 90.6635 31.6395C90.6466 31.6228 90.6193 31.6229 90.6026 31.6398C90.5858 31.6567 90.5859 31.684 90.6028 31.7007Z" fill="#F0D2D7"/>
<path d="M104.734 25.0558C104.734 25.0558 105.333 25.5433 104.738 26.0357C104.738 26.0357 104.124 25.6177 104.734 25.0558Z" fill="#F0D2D7"/>
<path d="M104.74 26.5045C104.74 26.5045 105.339 26.992 104.744 27.4844C104.744 27.4844 104.131 27.0664 104.74 26.5045Z" fill="#F0D2D7"/>
<path d="M103.521 26.2392C103.521 26.2392 104.009 25.64 104.501 26.2352C104.501 26.2352 104.083 26.8488 103.521 26.2392Z" fill="#F0D2D7"/>
<path d="M104.97 26.2331C104.97 26.2331 105.458 25.6339 105.95 26.2291C105.95 26.2291 105.532 26.8427 104.97 26.2331Z" fill="#F0D2D7"/>
<path d="M105.943 25.0503C105.796 25.1476 105.668 25.2638 105.543 25.3863C105.526 25.4032 105.526 25.4305 105.543 25.4473C105.56 25.464 105.587 25.4639 105.604 25.447C105.725 25.3246 105.843 25.1958 105.943 25.0503Z" fill="#F0D2D7"/>
<path d="M105.532 25.3945C105.411 25.517 105.294 25.6457 105.193 25.7913C105.34 25.6939 105.468 25.5777 105.594 25.4552C105.61 25.4384 105.61 25.411 105.593 25.3943C105.576 25.3775 105.549 25.3776 105.532 25.3945Z" fill="#F0D2D7"/>
<path d="M104.279 26.7307C104.132 26.8281 104.004 26.9442 103.878 27.0667C103.862 27.0836 103.862 27.111 103.879 27.1277C103.895 27.1445 103.923 27.1443 103.94 27.1275C104.061 27.005 104.178 26.8762 104.279 26.7307Z" fill="#F0D2D7"/>
<path d="M103.87 27.0747C103.748 27.1972 103.631 27.3259 103.531 27.4714C103.678 27.3741 103.805 27.2579 103.931 27.1354C103.948 27.1185 103.948 27.0912 103.931 27.0744C103.914 27.0577 103.887 27.0578 103.87 27.0747Z" fill="#F0D2D7"/>
<path d="M103.521 25.0601C103.622 25.2047 103.74 25.3325 103.863 25.454C103.88 25.4707 103.907 25.4706 103.924 25.4537C103.941 25.4368 103.94 25.4095 103.924 25.3928C103.799 25.2734 103.668 25.1583 103.521 25.0601Z" fill="#F0D2D7"/>
<path d="M103.871 25.4627C103.996 25.5821 104.127 25.6972 104.274 25.7954C104.175 25.6507 104.055 25.5229 103.932 25.4015C103.915 25.3847 103.888 25.3848 103.871 25.4017C103.854 25.4186 103.854 25.446 103.871 25.4627Z" fill="#F0D2D7"/>
<path d="M105.199 26.7258C105.301 26.8705 105.419 26.9983 105.542 27.1198C105.558 27.1365 105.586 27.1364 105.603 27.1195C105.619 27.1026 105.619 27.0753 105.602 27.0585C105.478 26.9392 105.347 26.8241 105.199 26.7258Z" fill="#F0D2D7"/>
<path d="M105.55 27.1285C105.674 27.2478 105.805 27.363 105.953 27.4612C105.853 27.3165 105.733 27.1887 105.611 27.0672C105.594 27.0505 105.566 27.0506 105.55 27.0675C105.533 27.0844 105.533 27.1117 105.55 27.1285Z" fill="#F0D2D7"/>
<path d="M100.65 29.6258L97.715 25.5939C97.715 25.5939 98.2053 21.0034 98.0522 19.1105C97.899 17.2176 97.084 13.9432 94.1715 14.2474C91.2591 14.55 91.4219 18.4099 91.4219 18.4099C91.4219 18.4099 89.8178 18.1259 87.9315 19.8804C86.0452 21.6364 78.5064 30.1886 78.5064 30.1886C78.5064 30.1886 75.0988 33.9164 76.3615 39.6652C77.6242 45.414 78.966 52.9092 77.5969 56.5566C76.2278 60.2041 69.0964 79.2424 69.0964 79.2424L86.019 85.5092L91.1629 61.5265C91.1629 61.5265 94.9237 55.1741 95.5759 54.2247C96.2281 53.2752 98.2501 49.1891 95.9754 45.0459L96.0298 40.4571C96.0298 40.4571 96.0974 41.2644 96.8652 41.2612C96.8652 41.2612 96.6307 42.9982 98.0837 42.9922C99.5367 42.9862 100.865 41.6485 101.746 39.9073C102.628 38.1677 101.732 36.5547 101.732 36.5547C101.732 36.5547 102.827 32.6147 100.65 29.6243L100.65 29.6258Z" fill="#FFC197"/>
<path d="M97.9189 25.7681C97.4068 26.5701 96.9039 27.389 96.5604 28.2821C96.4424 28.5839 96.4086 28.9098 96.367 29.2236C96.227 30.4875 96.1542 31.7558 96.0891 33.024C96.0002 35.5588 95.9128 38.1119 96.2322 40.6328C96.1822 39.9998 96.1413 39.3682 96.1372 38.7335C96.0987 36.8325 96.1551 34.9295 96.2421 33.031C96.2949 31.7644 96.3692 30.4976 96.4833 29.2368C96.5187 28.9216 96.5419 28.6095 96.6508 28.3154C96.9729 27.4239 97.4482 26.5929 97.919 25.7696L97.9189 25.7681Z" fill="#423536"/>
<path d="M91.3879 19.6096C90.9161 21.2818 90.7 23.0202 90.646 24.7549C90.6227 25.4035 90.6743 26.0564 90.6541 26.7035C90.5898 27.7928 90.0723 28.7845 89.4733 29.6757C87.2911 32.7238 85.4117 35.0213 85.0318 38.9446C85.4402 36.384 86.5514 33.9826 88.0783 31.8717C89.0422 30.4483 90.1973 29.0608 90.6155 27.3568C90.8123 26.5055 90.7093 25.625 90.773 24.762C90.8316 23.0396 91.0706 21.2796 91.388 19.6127L91.3879 19.6096Z" fill="#423536"/>
<path d="M96.2254 14.3419C96.2254 14.3419 98.5511 21.0513 94.5416 21.0513C91.1204 21.0513 93.0672 15.8723 93.6711 14.3372C93.8073 13.991 94.0538 13.681 94.4032 13.4807C94.9144 13.188 95.6649 13.0748 96.2254 14.3419Z" fill="#964729"/>
<path d="M99.6032 38.8951C99.7761 38.1664 98.96 37.5748 98.3438 38.001C98.3347 38.0072 98.3255 38.0133 98.3164 38.021C97.5295 38.5886 97.2361 39.7599 97.0645 40.8084C96.9899 41.2645 97.4442 41.6434 97.8733 41.4719C98.1115 41.3761 98.3891 41.1822 98.695 40.823C99.1273 40.315 99.4123 39.6974 99.5656 39.0482L99.6017 38.8967L99.6032 38.8951Z" fill="#964729"/>
<path d="M99.2151 40.5684C99.2151 40.5684 100.623 40.431 100.263 41.2952C99.9023 42.1593 98.9343 42.5732 98.3518 42.62C97.7692 42.6668 97.4825 42.1372 97.8713 41.4703C98.2601 40.8033 97.854 41.3418 99.2136 40.5684L99.2151 40.5684Z" fill="#964729"/>
<path d="M98.5764 34.3257C97.4873 35.046 96.6813 36.1521 96.1723 37.3442C96.1026 37.5173 96.0422 37.6919 95.9833 37.8681C96.6401 36.5515 97.4777 35.3137 98.5764 34.3257Z" fill="#423536"/>
<path d="M101.057 37.2188C100.699 38.2787 100.308 39.3769 99.561 40.2289C99.459 40.3563 99.334 40.4577 99.2152 40.5699C99.354 40.4852 99.4929 40.3944 99.6148 40.2838C100.46 39.4971 100.885 38.3406 101.057 37.2203L101.057 37.2188Z" fill="#423536"/>
<path d="M90.3545 65.9493L76.4301 60.0968L48.2303 115.894L58.5028 116.317L86.6561 116.2L90.3545 65.9493Z" fill="#D4B7DA"/>
<path d="M89.975 71.0946C89.975 71.0946 79.1071 71.1367 74.5701 64.0478" stroke="#423536" stroke-miterlimit="10"/>
<path d="M87.4584 70.9123L87.5823 82.3678L87.6113 70.9116L87.4584 70.9123Z" fill="#423536"/>
<path d="M85.0949 70.4979L84.3224 77.4849L85.2464 70.5172L85.0949 70.4979Z" fill="#423536"/>
<path d="M81.6201 69.454L78.3413 79.1785L81.7656 69.5038L81.6201 69.454Z" fill="#423536"/>
<path d="M79.2543 68.3389L77.4973 72.6046L79.372 68.4285L79.2543 68.3389Z" fill="#423536"/>
<path d="M77.7635 67.3966L75.0206 72.6045L77.8619 67.5291L77.7635 67.3966Z" fill="#423536"/>
<path d="M75.2893 65.1852L70.5169 74.4052L75.3715 65.285L75.2893 65.1852Z" fill="#423536"/>
<path d="M90.362 67.777C90.362 67.777 79.9488 68.1419 75.4709 62.3589" stroke="#423536" stroke-miterlimit="10"/>
<path d="M85.3059 103.39C85.142 103.39 85.0076 103.005 85.0056 102.528C85.0036 102.052 85.1349 101.665 85.2987 101.665C85.4626 101.664 85.5971 102.05 85.599 102.526C85.601 103.002 85.4698 103.389 85.3059 103.39Z" fill="#CE7D8A"/>
<path d="M78.2163 98.1618C78.0524 98.1625 77.918 97.7768 77.916 97.3004C77.914 96.824 78.0453 96.4372 78.2091 96.4365C78.373 96.4359 78.5075 96.8215 78.5094 97.2979C78.5114 97.7743 78.3802 98.1611 78.2163 98.1618Z" fill="#CE7D8A"/>
<path d="M80.4548 108.667C80.2909 108.668 80.1565 108.282 80.1545 107.806C80.1525 107.329 80.2838 106.942 80.4477 106.942C80.6115 106.941 80.746 107.327 80.748 107.803C80.7499 108.279 80.6187 108.666 80.4548 108.667Z" fill="#CE7D8A"/>
<path d="M73.6548 111.677C73.4909 111.678 73.3564 111.292 73.3545 110.816C73.3525 110.34 73.4837 109.953 73.6476 109.952C73.8115 109.951 73.9459 110.337 73.9479 110.814C73.9499 111.29 73.8186 111.677 73.6548 111.677Z" fill="#CE7D8A"/>
<path d="M65.435 113.142C65.2712 113.142 65.1367 112.757 65.1347 112.28C65.1328 111.804 65.264 111.417 65.4279 111.416C65.5918 111.416 65.7262 111.801 65.7282 112.278C65.7302 112.754 65.5989 113.141 65.435 113.142Z" fill="#CE7D8A"/>
<path d="M80.7812 115.758C80.6173 115.758 80.4829 115.373 80.4809 114.896C80.479 114.42 80.6102 114.033 80.7741 114.032C80.938 114.032 81.0724 114.417 81.0744 114.894C81.0763 115.37 80.9451 115.757 80.7812 115.758Z" fill="#CE7D8A"/>
<path d="M60.2712 99.0822C60.1073 99.0829 59.9729 98.6972 59.9709 98.2208C59.9689 97.7444 60.1002 97.3576 60.2641 97.3569C60.4279 97.3563 60.5624 97.7419 60.5644 98.2183C60.5663 98.6948 60.4351 99.0815 60.2712 99.0822Z" fill="#CE7D8A"/>
<path d="M85.0481 112.414C84.8842 112.415 84.7497 112.029 84.7478 111.553C84.7458 111.077 84.8771 110.69 85.0409 110.689C85.2048 110.689 85.3392 111.074 85.3412 111.551C85.3432 112.027 85.2119 112.414 85.0481 112.414Z" fill="#CE7D8A"/>
<path d="M75.7942 104.135C75.6303 104.136 75.4958 103.75 75.4939 103.274C75.4919 102.798 75.6231 102.411 75.787 102.41C75.9509 102.409 76.0853 102.795 76.0873 103.272C76.0893 103.748 75.958 104.135 75.7942 104.135Z" fill="#CE7D8A"/>
<path d="M66.9531 105.897C66.7892 105.898 66.6548 105.512 66.6528 105.036C66.6508 104.559 66.7821 104.173 66.946 104.172C67.1098 104.171 67.2443 104.557 67.2462 105.033C67.2482 105.51 67.117 105.896 66.9531 105.897Z" fill="#CE7D8A"/>
<path d="M60.3747 105.925C60.2109 105.925 60.0764 105.54 60.0744 105.063C60.0725 104.587 60.2037 104.2 60.3676 104.199C60.5315 104.199 60.6659 104.584 60.6679 105.061C60.6698 105.537 60.5386 105.924 60.3747 105.925Z" fill="#CE7D8A"/>
<path d="M70.9748 99.839C70.8109 99.8397 70.6765 99.4541 70.6745 98.9776C70.6726 98.5012 70.8038 98.1145 70.9677 98.1138C71.1316 98.1131 71.266 98.4988 71.268 98.9752C71.2699 99.4516 71.1387 99.8384 70.9748 99.839Z" fill="#CE7D8A"/>
<path d="M64.6345 96.8066C64.4706 96.8073 64.3362 96.4216 64.3342 95.9452C64.3322 95.4688 64.4635 95.082 64.6274 95.0813C64.7912 95.0806 64.9257 95.4663 64.9276 95.9427C64.9296 96.4191 64.7984 96.8059 64.6345 96.8066Z" fill="#CE7D8A"/>
<path d="M88.5377 90.7393L88.5565 90.0984L86.0819 85.332L81.7352 88.721L78.4302 83.2315L74.1585 86.6263L71.9121 80.8326L64.3995 83.8662L64.1827 84.329L71.6909 81.3429L73.9852 87.2618L78.324 83.8131L81.6275 89.2996L85.9513 85.9305L88.5377 90.7393Z" fill="#CE7D8A"/>
<path d="M88.1952 95.2879L88.2386 94.6897L85.5654 89.9837L80.8104 93.3714L77.1949 87.8832L72.5164 91.2828L70.0574 85.4823L62.0916 88.4244L61.794 88.9518L69.8438 85.9788L72.3491 91.8876L77.0947 88.4403L80.7072 93.9255L85.4408 90.5532L88.1952 95.2879Z" fill="#CE7D8A"/>
<path d="M88.3056 20.3639C88.756 18.9228 89.4315 16.7612 90.4448 15.4102H92.2462C91.4581 16.6486 91.3305 18.9003 91.2329 20.3639C91.0077 23.7415 90.8951 24.7548 90.7825 26.6688C90.6925 28.1999 88.756 31.0972 87.9679 32.0729C86.7294 29.9338 87.7427 22.1653 88.3056 20.3639Z" fill="#2C1014"/>
<path d="M-84.0007 26.7331C-47.5694 93.3095 31.1586 152.592 211.926 113.174C396.666 72.8894 466.799 140.777 477.914 173.551" stroke="#F2BB46" stroke-width="20"/>
<path d="M312.075 10.2318C312.316 8.43266 305.871 6.08657 297.681 4.99166C289.491 3.89674 282.656 4.46763 282.416 6.26678C282.175 8.06592 288.62 10.412 296.81 11.5069C305 12.6018 311.835 12.0309 312.075 10.2318Z" fill="#EAEEF0"/>
<path d="M285.425 11.842C286.705 11.2115 288.219 10.5898 289.958 10.0926C294.064 8.91896 297.698 8.93462 300.23 9.18069C301.498 9.28481 302.994 9.49802 304.641 9.91798C306.192 10.3138 307.536 10.8046 308.653 11.2887C307.891 11.5456 306.865 11.8635 305.635 12.1595C304.288 12.4842 301.519 13.0685 297.961 13.1473C295.327 13.2061 293.359 12.9627 289.876 12.5328C288.358 12.3453 287.106 12.1544 286.252 12.0147" fill="#4C3D31"/>
<path d="M282.463 6.39575C282.625 6.48632 282.642 7.89549 282.671 8.12333C282.786 9.02053 282.907 9.90776 282.952 10.8144C283.045 12.6815 282.944 14.5526 282.778 16.4136C282.446 20.1144 281.835 23.8007 281.859 27.5226C281.883 31.2812 282.562 34.9971 283.239 38.6902C283.349 39.2935 283.467 39.9156 283.802 40.4271C284.632 41.6912 286.573 42.0111 287.939 42.4321C292.19 43.742 296.532 44.3003 300.911 43.1852C301.381 43.0658 301.858 42.9233 302.248 42.6339C303.08 42.0138 303.318 40.8951 303.595 39.8941C304.31 37.3257 305.657 34.9789 306.554 32.4679C307.848 28.843 308.179 24.9831 308.711 21.2007C309.209 17.667 309.813 13.4847 311.924 10.492C311.924 10.492 298.589 15.4199 282.463 6.39575Z" fill="#A0B2D4"/>
<path d="M308.105 11.3625C305.455 18.2179 305.293 25.7365 303.177 32.7675C302.017 36.6229 300.1 40.1315 298.353 43.7162" stroke="#28292B" stroke-width="0.5" stroke-miterlimit="10"/>
<path d="M285.914 41.7656C285.356 37.9608 284.613 34.1777 284.696 30.2861C284.845 23.19 286.995 16.1891 286.583 9.10514L286.471 8.34106" stroke="#28292B" stroke-width="0.5" stroke-miterlimit="10"/>
<path d="M291.249 10.1409C291.672 17.2962 289.535 24.3614 289.399 31.529C289.323 35.4582 290.073 39.2813 290.638 43.1248" stroke="#28292B" stroke-width="0.5" stroke-miterlimit="10"/>
<path d="M303.041 11.8039C300.695 18.5825 300.846 25.9544 299.039 32.8936C298.047 36.6978 296.29 40.1813 294.703 43.7339" stroke="#28292B" stroke-width="0.5" stroke-miterlimit="10"/>
<path d="M296.844 11.4019L293.018 43.5365" stroke="#28292B" stroke-width="0.5" stroke-miterlimit="10"/>
<path d="M309.282 16.3389C309.282 16.3389 311.808 15.4052 312.966 17.1955L315.915 16.353C315.915 16.353 311.551 15.8635 311.915 10.5512C311.915 10.5512 310.042 12.5383 309.282 16.3389Z" fill="#A0B2D4"/>
<path d="M306.498 31.7031C306.498 31.7031 307.416 31.439 308.941 31.0413L310.306 33.3207L304.834 35.6995L306.498 31.7031Z" fill="#A0B2D4"/>
<path d="M353.706 37.4406C353.706 37.4406 347.573 33.2884 344.383 32.1156C344.383 32.1156 339.867 30.4308 337.184 26.6253C334.739 23.1647 331.328 19.9955 327.894 17.5623C325.151 15.6176 322.339 14.905 319.224 13.8792C317.224 13.2189 314.019 12.1124 313.224 9.91523C313.224 9.91523 310.455 10.0152 311.843 13.54C311.843 13.54 312.946 16.2796 315.173 16.5257C314.982 16.5473 311.704 16.8902 310.753 19.3183C310.753 19.3183 309.054 21.1272 312.063 27.0796C312.063 27.0796 307.549 27.3964 308.061 29.9391C308.061 29.9391 307.6 32.5641 309.559 33.4851C309.559 33.4851 305.06 34.5399 306.558 37.5796C306.558 37.5796 307.249 40.4472 309.486 40.0701C309.486 40.0701 308.682 43.2124 311.116 44.1499L318.791 45.0513C318.791 45.0513 321.549 47.0669 324.75 47.4035C324.75 47.4035 330.706 49.2061 335.004 49.0675C335.004 49.0675 339.219 48.3369 341.336 49.5063L346.897 52.5396C346.897 52.5396 348.975 44.0671 353.706 37.4395L353.706 37.4406ZM318.915 26.1618C317.672 26.4363 317.268 26.4459 317.268 26.4459L316.607 24.4421C316.985 24.4662 318.871 25.0928 318.871 25.0928C319.045 25.0727 320.602 25.7761 320.602 25.7761L318.915 26.1618Z" fill="#E69A93"/>
<path d="M309.688 33.754C310.68 33.6904 312.908 33.5897 313.865 33.5244C315.253 33.4077 316.636 33.1798 318 32.9005C318.905 32.6992 319.816 32.4807 320.649 32.0498L320.654 32.0601C319.854 32.5573 318.932 32.8154 318.024 33.0199C317.113 33.2227 316.186 33.348 315.259 33.436C313.632 33.5824 311.28 33.8692 309.688 33.754Z" fill="#453436"/>
<path d="M309.576 39.8904C311.095 39.7022 312.617 39.524 314.118 39.2138C315.822 38.8088 317.505 38.3139 319.17 37.7653L319.796 37.562L319.801 37.5733C317.982 38.3531 316.063 38.8863 314.126 39.2555C312.631 39.5532 311.084 39.913 309.576 39.8915L309.576 39.8904Z" fill="#453436"/>
<path d="M315.114 16.5074C317.599 16.5203 320.031 16.8754 322.484 17.2229C324.743 17.5729 327.659 18.0999 329.514 19.4952L329.506 19.5054C328.475 18.8051 327.279 18.4273 326.095 18.0889C324.305 17.6076 322.476 17.2427 320.635 17.0107C318.795 16.7984 316.935 16.6931 315.114 16.5074Z" fill="#453436"/>
<path d="M351.228 56.4512C368.372 67.8074 385.518 79.1637 402.663 90.5188C404.332 77.1354 406.003 63.7522 407.672 50.3677C391.592 46.8239 375.512 43.2801 359.432 39.7363C358.061 41.8576 356.656 44.254 355.299 46.9272C353.574 50.3288 352.25 53.5467 351.227 56.4498L351.228 56.4512Z" fill="#609FAF"/>
<path d="M346.613 53.4612C346.613 53.4612 345.681 52.5012 353.166 37.6183C353.166 37.6183 353.256 36.0281 355.208 37.1112L359.298 39.594C359.298 39.594 352.643 51.7174 351.167 56.4066C351.167 56.4066 346.366 55.3127 346.613 53.4612Z" fill="#609FAF" stroke="#453436" stroke-miterlimit="10"/>
</svg>
