<svg width="31" height="31" viewBox="0 0 31 31" fill="none" xmlns="http://www.w3.org/2000/svg">
<path d="M15.1791 0C6.80907 0 0 6.80922 0 15.1789C0 23.5488 6.80907 30.3583 15.1791 30.3583C23.5487 30.3583 30.3583 23.5488 30.3583 15.1789C30.3583 6.80922 23.5487 0 15.1791 0ZM19.4692 9.58212C19.4692 9.654 19.4406 9.72293 19.3898 9.77375C19.339 9.82457 19.2701 9.85313 19.1982 9.85313L17.4727 9.85421C16.3342 9.85421 16.126 10.2976 16.126 11.1707V12.9821H19.0855C19.1632 12.9821 19.2375 13.0157 19.2887 13.0743C19.3399 13.1328 19.3638 13.2106 19.3543 13.2878L18.9329 16.5488C18.9244 16.6141 18.8925 16.6742 18.843 16.7176C18.7935 16.7611 18.7299 16.7851 18.664 16.7851H16.126V24.8824C16.126 24.9543 16.0975 25.0232 16.0467 25.074C15.9958 25.1249 15.9269 25.1534 15.855 25.1534H12.488C12.4162 25.1534 12.3472 25.1249 12.2964 25.074C12.2456 25.0232 12.217 24.9543 12.217 24.8824V16.7851H9.67091C9.59904 16.7851 9.5301 16.7566 9.47928 16.7057C9.42846 16.6549 9.3999 16.586 9.3999 16.5141V13.2531C9.3999 13.1813 9.42846 13.1123 9.47928 13.0615C9.5301 13.0107 9.59904 12.9821 9.67091 12.9821H12.217V10.848C12.217 8.02142 13.9276 6.26586 16.6819 6.26586C17.8659 6.26586 18.9123 6.35393 19.2337 6.39648C19.2988 6.40509 19.3586 6.43707 19.402 6.48648C19.4453 6.53588 19.4692 6.59934 19.4692 6.66505V9.58212Z" fill="white"/>
</svg>
