<svg width="32" height="31" viewBox="0 0 32 31" fill="none" xmlns="http://www.w3.org/2000/svg">
<path fill-rule="evenodd" clip-rule="evenodd" d="M7.44919 2.55815C9.94539 0.890241 12.8801 0 15.8823 0C19.908 0 23.7689 1.59923 26.6156 4.44587C29.4622 7.29251 31.0614 11.1534 31.0614 15.1791C31.0614 18.1813 30.1712 21.116 28.5033 23.6122C26.8354 26.1084 24.4647 28.054 21.6911 29.2028C18.9175 30.3517 15.8654 30.6523 12.921 30.0666C9.97651 29.4809 7.27184 28.0353 5.149 25.9124C3.02616 23.7896 1.58049 21.0849 0.994795 18.1404C0.409104 15.196 0.709702 12.144 1.85858 9.37034C3.00745 6.59671 4.953 4.22605 7.44919 2.55815ZM23.3722 20.3574C23.6025 19.7435 23.7271 19.095 23.7406 18.4395C23.7786 17.5952 23.7881 17.3264 23.7881 15.1791C23.7881 13.0319 23.7786 12.7631 23.7406 11.9188C23.7271 11.2633 23.6025 10.6148 23.3722 10.0008C23.1692 9.47577 22.8587 8.99892 22.4606 8.60084C22.0625 8.20276 21.5856 7.89224 21.0606 7.68918C20.4467 7.45891 19.7982 7.33434 19.1426 7.32077C18.2983 7.28283 18.0295 7.27334 15.8823 7.27334C13.7351 7.27334 13.4663 7.28283 12.6219 7.32077C11.9664 7.33434 11.3179 7.45891 10.704 7.68918C10.1789 7.89224 9.70205 8.20276 9.30397 8.60084C8.9059 8.99892 8.59538 9.47577 8.39232 10.0008C8.16204 10.6148 8.03747 11.2633 8.02391 11.9188C7.98596 12.7631 7.97647 13.0319 7.97647 15.1791C7.97647 17.3264 7.98596 17.5952 8.02391 18.4395C8.03747 19.095 8.16204 19.7435 8.39232 20.3574C8.59538 20.8825 8.9059 21.3594 9.30397 21.7574C9.70205 22.1555 10.1789 22.466 10.704 22.6691C11.3179 22.8994 11.9664 23.0239 12.6219 23.0375C13.4663 23.0755 13.7351 23.0849 15.8823 23.0849C18.0295 23.0849 18.2983 23.0755 19.1426 23.0375C19.7982 23.0239 20.4467 22.8994 21.0606 22.6691C21.5856 22.466 22.0625 22.1555 22.4606 21.7574C22.8587 21.3594 23.1692 20.8825 23.3722 20.3574ZM22.0459 10.5154C21.9142 10.1743 21.7125 9.86451 21.4537 9.60607C21.195 9.34763 20.8851 9.14625 20.5438 9.01489C20.0739 8.84085 19.5775 8.74886 19.0765 8.74293C18.2432 8.70499 17.9934 8.6955 15.8825 8.6955C13.7717 8.6955 13.5218 8.70499 12.6886 8.74293C12.187 8.74868 11.6901 8.84067 11.2197 9.01489C10.8785 9.14661 10.5688 9.34832 10.3103 9.60703C10.0519 9.86574 9.8505 10.1757 9.71915 10.517C9.5451 10.9869 9.45311 11.4832 9.44719 11.9843C9.40924 12.8176 9.39975 13.0674 9.39975 15.1783C9.39975 17.2891 9.40924 17.5389 9.44719 18.3722C9.45293 18.8738 9.54493 19.3707 9.71915 19.8411C9.85086 20.1822 10.0526 20.492 10.3113 20.7504C10.57 21.0089 10.88 21.2103 11.2213 21.3416C11.6912 21.5157 12.1875 21.6077 12.6886 21.6136C13.5218 21.6515 13.7717 21.661 15.8825 21.661C17.9934 21.661 18.2432 21.6515 19.0765 21.6136C19.5781 21.6078 20.0749 21.5158 20.5454 21.3416C20.8865 21.2099 21.1963 21.0082 21.4547 20.7495C21.7131 20.4908 21.9145 20.1808 22.0459 19.8395C22.2199 19.3696 22.3119 18.8733 22.3178 18.3722C22.3558 17.5389 22.3653 17.2891 22.3653 15.1783C22.3653 13.0674 22.3558 12.8176 22.3178 11.9843C22.3121 11.4827 22.2201 10.9858 22.0459 10.5154ZM15.8825 19.2387C15.0794 19.2387 14.2944 19.0005 13.6267 18.5544C12.9589 18.1082 12.4385 17.4741 12.1312 16.7321C11.8239 15.9902 11.7434 15.1738 11.9001 14.3861C12.0568 13.5985 12.4435 12.875 13.0114 12.3071C13.5792 11.7392 14.3027 11.3525 15.0904 11.1959C15.878 11.0392 16.6944 11.1196 17.4364 11.4269C18.1783 11.7342 18.8125 12.2547 19.2586 12.9224C19.7048 13.5901 19.9429 14.3752 19.9429 15.1783C19.9429 16.2551 19.5151 17.2879 18.7537 18.0494C17.9922 18.8109 16.9594 19.2387 15.8825 19.2387ZM20.1026 11.9068C19.915 11.9068 19.7316 11.8512 19.5756 11.747C19.4196 11.6427 19.298 11.4945 19.2262 11.3212C19.1543 11.1478 19.1356 10.9571 19.1722 10.7731C19.2088 10.589 19.2991 10.42 19.4318 10.2873C19.5645 10.1546 19.7335 10.0643 19.9176 10.0277C20.1016 9.99107 20.2923 10.0099 20.4657 10.0817C20.639 10.1535 20.7872 10.2751 20.8914 10.4311C20.9957 10.5871 21.0513 10.7705 21.0513 10.9581C21.0513 11.2098 20.9514 11.4511 20.7735 11.629C20.5955 11.8069 20.3542 11.9068 20.1026 11.9068ZM15.8829 17.8155C17.3386 17.8155 18.5187 16.6355 18.5187 15.1798C18.5187 13.724 17.3386 12.544 15.8829 12.544C14.4272 12.544 13.2471 13.724 13.2471 15.1798C13.2471 16.6355 14.4272 17.8155 15.8829 17.8155Z" fill="white"/>
</svg>
