<svg width="32" height="31" viewBox="0 0 32 31" fill="none" xmlns="http://www.w3.org/2000/svg">
<path d="M15.8823 0C7.49959 0 0.703125 6.79646 0.703125 15.1791C0.703125 23.5618 7.49959 30.3583 15.8823 30.3583C24.265 30.3583 31.0614 23.5618 31.0614 15.1791C31.0614 6.79646 24.265 0 15.8823 0ZM10.185 6.83441C11.2501 6.83441 11.9597 7.54404 11.9597 8.4902C11.9597 9.43637 11.2501 10.146 10.0674 10.146C9.00232 10.1473 8.2927 9.43637 8.2927 8.4902C8.2927 7.54404 9.00232 6.83441 10.185 6.83441ZM12.0875 21.5038H8.2927V11.3844H12.0875V21.5038ZM24.7368 21.5038H21.1646V15.9735C21.1646 14.4442 20.2121 14.0913 19.8554 14.0913C19.4987 14.0913 18.3071 14.3266 18.3071 15.9735C18.3071 16.2088 18.3071 21.5038 18.3071 21.5038H14.6173V11.3844H18.3084V12.796C18.784 11.9726 19.7365 11.3844 21.5226 11.3844C23.3087 11.3844 24.7368 12.796 24.7368 15.9735V21.5038Z" fill="white"/>
</svg>
