<svg width="32" height="31" viewBox="0 0 32 31" fill="none" xmlns="http://www.w3.org/2000/svg">
<path d="M15.8832 0C7.5131 0 0.703223 6.80988 0.703223 15.18C0.703223 17.7936 1.3784 20.3636 2.6588 22.6314L0.727643 29.5218C0.664283 29.7482 0.725663 29.9911 0.889343 30.1594C1.0154 30.2894 1.187 30.36 1.36322 30.36C1.41602 30.36 1.46948 30.3534 1.52162 30.3409L8.71298 28.5595C10.9088 29.7383 13.3818 30.36 15.8832 30.36C24.2533 30.36 31.0632 23.5501 31.0632 15.18C31.0632 6.80988 24.2533 0 15.8832 0ZM23.5194 20.5366C23.1947 21.4355 21.6371 22.2559 20.8887 22.3661C20.2168 22.4644 19.3667 22.5067 18.4335 22.2136C17.8678 22.0354 17.1418 21.7991 16.2119 21.4025C12.3027 19.7353 9.74984 15.8486 9.55448 15.5918C9.35978 15.3351 7.96322 13.5056 7.96322 11.612C7.96322 9.7185 8.96972 8.78724 9.32744 8.4018C9.68516 8.01636 10.1069 7.92 10.3669 7.92C10.627 7.92 10.8864 7.9233 11.1141 7.93386C11.3536 7.94574 11.6751 7.84344 11.9912 8.59452C12.3159 9.3654 13.0954 11.2589 13.1917 11.4523C13.2894 11.645 13.3541 11.8701 13.2247 12.1268C13.0954 12.3836 13.0307 12.544 12.8353 12.769C12.64 12.9941 12.4261 13.2706 12.2506 13.4435C12.0552 13.6356 11.8526 13.8435 12.0796 14.2289C12.3067 14.6144 13.0888 15.8743 14.2477 16.8947C15.736 18.2054 16.992 18.612 17.3814 18.8047C17.7708 18.9974 17.9985 18.9651 18.2256 18.7084C18.4526 18.451 19.1997 17.5844 19.4591 17.1996C19.7185 16.8148 19.9785 16.8782 20.3362 17.0069C20.694 17.1349 22.6099 18.0655 22.9993 18.2582C23.3887 18.451 23.6488 18.5473 23.7465 18.7077C23.8441 18.8674 23.8441 19.6383 23.5194 20.5366Z" fill="white"/>
</svg>
